<?xml version="1.0" encoding="UTF-8" standalone="no"?>
<svg
   width="24"
   height="24"
   stroke-width="1.5"
   viewBox="0 0 24 24"
   fill="none"
   version="1.1"
   id="svg1"
   sodipodi:docname="icon_mouse_scroll_fill.svg"
   inkscape:version="1.3 (0e150ed6c4, 2023-07-21)"
   inkscape:export-filename="..\..\ResourcesData\Resources\Textures\Icons\icon_mouse_scroll_fill.png"
   inkscape:export-xdpi="512"
   inkscape:export-ydpi="512"
   xmlns:inkscape="http://www.inkscape.org/namespaces/inkscape"
   xmlns:sodipodi="http://sodipodi.sourceforge.net/DTD/sodipodi-0.dtd"
   xmlns="http://www.w3.org/2000/svg"
   xmlns:svg="http://www.w3.org/2000/svg">
  <defs
     id="defs1" />
  <sodipodi:namedview
     id="namedview1"
     pagecolor="#ffffff"
     bordercolor="#000000"
     borderopacity="0.25"
     inkscape:showpageshadow="2"
     inkscape:pageopacity="0.0"
     inkscape:pagecheckerboard="true"
     inkscape:deskcolor="#d1d1d1"
     inkscape:zoom="24.188944"
     inkscape:cx="6.6145921"
     inkscape:cy="8.5782992"
     inkscape:window-width="1920"
     inkscape:window-height="1017"
     inkscape:window-x="-8"
     inkscape:window-y="-8"
     inkscape:window-maximized="1"
     inkscape:current-layer="svg1" />
  <path
     id="path2"
     style="fill:#ffffff"
     d="m 12,1.25 v 1.5 c 0.125128,0 0.249476,0.0035 0.373047,0.00977 0.123571,0.00626 0.247278,0.014968 0.369141,0.027344 0.121862,0.012376 0.241325,0.028539 0.361328,0.046875 0.120002,0.018336 0.239432,0.038356 0.357422,0.0625 0.117989,0.024144 0.235736,0.052231 0.351562,0.082031 0.115826,0.029801 0.23024,0.062351 0.34375,0.097656 0.11351,0.035305 0.224896,0.072623 0.335938,0.1132812 0.111041,0.040658 0.221655,0.085001 0.330078,0.1308594 0.108422,0.045859 0.214661,0.093624 0.320312,0.1445313 0.105651,0.050908 0.209773,0.1043512 0.3125,0.1601562 0.102728,0.055805 0.205035,0.1132778 0.304688,0.1738281 0.09965,0.06055 0.196543,0.1243093 0.292968,0.1894532 0.09643,0.065144 0.19211,0.1315863 0.285157,0.2011718 0.09305,0.069586 0.183921,0.1429216 0.273437,0.2167969 0.08952,0.073875 0.177839,0.1485492 0.263672,0.2265625 0.08583,0.078013 0.169954,0.1582349 0.251953,0.2402344 0.082,0.081999 0.162222,0.1661194 0.240234,0.2519531 0.07801,0.085834 0.152688,0.1741557 0.226563,0.2636719 0.07388,0.089516 0.147212,0.1803907 0.216797,0.2734375 0.06959,0.093047 0.136028,0.1887307 0.201172,0.2851562 0.06514,0.096426 0.128903,0.1933163 0.189453,0.2929688 0.06055,0.099652 0.118023,0.20196 0.173828,0.3046875 0.0558,0.1027275 0.109249,0.2068492 0.160156,0.3125 0.05091,0.1056507 0.09867,0.2118904 0.144531,0.3203125 0.04586,0.1084221 0.0902,0.2190364 0.13086,0.3300781 0.04066,0.1110417 0.07798,0.2224282 0.113281,0.3359375 0.03531,0.1135093 0.06786,0.2279248 0.09766,0.34375 0.0298,0.1158252 0.05789,0.2335733 0.08203,0.3515625 0.02414,0.1179892 0.04416,0.2374205 0.0625,0.3574219 0.01834,0.1200013 0.0345,0.2394664 0.04687,0.3613281 0.01238,0.1218617 0.02108,0.2455705 0.02734,0.3691406 C 19.246498,9.7505233 19.25,9.8748733 19.25,10 h 1.5 C 20.75,9.8489848 20.7458,9.6979646 20.73828,9.5488281 20.73068,9.3996917 20.72001,9.2525433 20.70508,9.1054688 20.69014,8.9583942 20.67057,8.812798 20.64844,8.6679688 20.626308,8.5231395 20.601405,8.3787289 20.572266,8.2363281 20.543126,8.0939273 20.510575,7.9522891 20.474609,7.8125 20.438643,7.6727109 20.400031,7.5354316 20.357422,7.3984375 20.314812,7.2614434 20.26782,7.1262033 20.21875,6.9921875 20.16968,6.8581717 20.117847,6.7246043 20.0625,6.59375 20.007153,6.4628957 19.948159,6.3345408 19.886719,6.2070312 19.825278,6.0795217 19.76071,5.9540596 19.693359,5.8300781 19.626009,5.7060966 19.5555,5.5831608 19.482422,5.4628906 19.409344,5.3426204 19.334481,5.2237975 19.255859,5.1074219 19.177238,4.9910462 19.095701,4.8779228 19.011719,4.765625 18.927736,4.6533272 18.841113,4.5416305 18.751953,4.4335937 18.662793,4.325557 18.570716,4.2207799 18.476562,4.1171875 18.382409,4.0135951 18.286465,3.9114648 18.1875,3.8125 18.088535,3.7135352 17.986405,3.6175915 17.882812,3.5234375 17.77922,3.4292835 17.674443,3.3372067 17.566406,3.2480469 17.45837,3.158887 17.346673,3.0722637 17.234375,2.9882813 17.122077,2.9042988 17.008954,2.8227625 16.892578,2.7441406 16.776203,2.6655188 16.65738,2.5906561 16.537109,2.5175781 16.416839,2.4445002 16.293903,2.3739914 16.169922,2.3066406 16.04594,2.2392898 15.920478,2.1747216 15.792969,2.1132813 15.665459,2.0518409 15.537104,1.9928467 15.40625,1.9375 15.275396,1.8821533 15.141828,1.8303198 15.007813,1.78125 14.873797,1.7321802 14.738557,1.6851877 14.601563,1.6425781 14.464568,1.5999685 14.327289,1.5613568 14.1875,1.5253906 14.047711,1.4894245 13.906073,1.4568738 13.763672,1.4277344 13.621271,1.3985949 13.476861,1.373692 13.332031,1.3515625 13.187202,1.329433 13.041606,1.3098581 12.894531,1.2949219 12.747457,1.2799856 12.600309,1.2692785 12.451172,1.2617187 12.302035,1.254159 12.151015,1.25 12,1.25 Z m 0,0 c -0.151015,0 -0.302035,0.00416 -0.451172,0.011719 -0.149136,0.00756 -0.296285,0.018267 -0.443359,0.033203 -0.147075,0.014936 -0.292671,0.034511 -0.4375,0.056641 -0.14483,0.022129 -0.28924,0.047032 -0.431641,0.076172 C 10.093927,1.4568738 9.9522891,1.4894245 9.8125,1.5253906 9.6727109,1.5613568 9.5354316,1.5999685 9.3984375,1.6425781 9.2614434,1.6851877 9.1262033,1.7321802 8.9921875,1.78125 8.8581717,1.8303198 8.7246043,1.8821533 8.59375,1.9375 8.4628957,1.9928467 8.3345408,2.0518409 8.2070313,2.1132813 8.0795217,2.1747216 7.9540596,2.2392898 7.8300781,2.3066406 7.7060966,2.3739914 7.5831608,2.4445002 7.4628906,2.5175781 7.3426204,2.5906561 7.2237975,2.6655188 7.1074219,2.7441406 6.9910462,2.8227625 6.8779228,2.9042988 6.765625,2.9882813 6.6533272,3.0722637 6.5416305,3.158887 6.4335937,3.2480469 6.325557,3.3372067 6.2207799,3.4292835 6.1171875,3.5234375 6.0135951,3.6175915 5.9114648,3.7135352 5.8125,3.8125 5.7135352,3.9114648 5.6175915,4.0135951 5.5234375,4.1171875 5.4292835,4.2207799 5.3372067,4.325557 5.2480469,4.4335937 5.158887,4.5416305 5.0722637,4.6533272 4.9882812,4.765625 4.9042988,4.8779228 4.8227625,4.9910462 4.7441406,5.1074219 4.6655188,5.2237975 4.5906561,5.3426204 4.5175781,5.4628906 4.4445002,5.5831608 4.3739914,5.7060966 4.3066406,5.8300781 4.2392898,5.9540596 4.1747216,6.0795217 4.1132812,6.2070312 4.0518409,6.3345408 3.9928467,6.4628957 3.9375,6.59375 3.8821533,6.7246043 3.8303198,6.8581717 3.78125,6.9921875 3.7321802,7.1262033 3.6851877,7.2614434 3.6425781,7.3984375 3.5999685,7.5354316 3.5613568,7.6727109 3.5253906,7.8125 3.4894245,7.9522891 3.4568738,8.0939273 3.4277344,8.2363281 3.3985949,8.3787289 3.373692,8.5231395 3.3515625,8.6679688 3.329433,8.812798 3.3098581,8.9583942 3.2949219,9.1054688 3.2799856,9.2525433 3.2692785,9.3996917 3.2617188,9.5488281 3.254159,9.6979646 3.25,9.8489848 3.25,10 h 1.5 C 4.75,9.8748733 4.7535,9.7505233 4.75977,9.6269531 4.76603,9.503383 4.774738,9.3796742 4.787114,9.2578125 4.79949,9.1359508 4.815653,9.0164857 4.833989,8.8964844 4.852325,8.776483 4.872345,8.6570517 4.896489,8.5390625 4.9206285,8.4210733 4.9487151,8.3033252 4.9785156,8.1875 5.0083162,8.0716748 5.0408668,7.9572593 5.0761719,7.84375 5.111477,7.7302407 5.1487953,7.6188542 5.1894531,7.5078125 5.230111,7.3967708 5.2744538,7.2861565 5.3203125,7.1777344 5.3661712,7.0693123 5.413936,6.9630726 5.4648437,6.8574219 5.5157515,6.7517711 5.569195,6.6476494 5.625,6.5449219 5.680805,6.4421944 5.7382778,6.3398868 5.7988281,6.2402344 5.8593785,6.1405819 5.9231374,6.0436912 5.9882812,5.9472656 6.0534251,5.8508401 6.1198676,5.7551562 6.1894531,5.6621094 6.2590386,5.5690626 6.3323747,5.4781881 6.40625,5.3886719 6.4801253,5.2991557 6.5547992,5.2108337 6.6328125,5.125 6.7108258,5.0391663 6.7910474,4.9550463 6.8730469,4.8730469 6.9550463,4.7910474 7.0391663,4.7108258 7.125,4.6328125 7.2108337,4.5547992 7.2991557,4.4801253 7.3886719,4.40625 7.4781881,4.3323747 7.5690626,4.2590386 7.6621094,4.1894531 7.7551562,4.1198676 7.8508401,4.0534251 7.9472656,3.9882813 8.0436912,3.9231374 8.1405819,3.8593785 8.2402344,3.7988281 8.3398868,3.7382778 8.4421944,3.680805 8.5449219,3.625 8.6476494,3.569195 8.7517711,3.5157515 8.8574219,3.4648438 8.9630726,3.413936 9.0693123,3.3661712 9.1777344,3.3203125 9.2861565,3.2744538 9.3967708,3.230111 9.5078125,3.1894531 9.6188542,3.1487953 9.7302407,3.111477 9.84375,3.0761719 c 0.1135093,-0.035305 0.227925,-0.067856 0.34375,-0.097656 0.115825,-0.029801 0.233573,-0.057887 0.351563,-0.082031 0.117989,-0.024144 0.23742,-0.044164 0.357421,-0.0625 0.120002,-0.018336 0.239467,-0.034499 0.361329,-0.046875 0.121861,-0.012376 0.24557,-0.02108 0.36914,-0.027344 C 11.750523,2.7535018 11.874873,2.75 12,2.75 Z m 0,1.5 c -0.125127,0 -0.249477,0.0035 -0.373047,0.00977 -0.12357,0.00626 -0.247279,0.014968 -0.36914,0.027344 -0.121862,0.012376 -0.241327,0.028539 -0.361329,0.046875 -0.120001,0.018336 -0.239432,0.038356 -0.357421,0.0625 C 10.421073,2.920633 10.303325,2.94872 10.1875,2.97852 10.071675,3.008321 9.9572593,3.040871 9.84375,3.076176 9.7302407,3.111477 9.6188542,3.1487953 9.5078125,3.1894531 9.3967708,3.230111 9.2861565,3.2744538 9.1777344,3.3203125 9.0693123,3.3661712 8.9630726,3.413936 8.8574219,3.4648438 8.7517711,3.5157515 8.6476494,3.569195 8.5449219,3.625 8.4421944,3.680805 8.3398868,3.7382778 8.2402344,3.7988281 8.1405819,3.8593785 8.0436912,3.9231374 7.9472656,3.9882813 7.8508401,4.0534251 7.7551562,4.1198676 7.6621094,4.1894531 7.5690626,4.2590386 7.4781881,4.3323747 7.3886719,4.40625 7.2991557,4.4801253 7.2108337,4.5547992 7.125,4.6328125 7.0391663,4.7108258 6.9550463,4.7910474 6.8730469,4.8730469 6.7910474,4.9550463 6.7108258,5.0391663 6.6328125,5.125 6.5547992,5.2108337 6.4801253,5.2991557 6.40625,5.3886719 6.3323747,5.4781881 6.2590386,5.5690626 6.1894531,5.6621094 6.1198676,5.7551562 6.0534251,5.8508401 5.9882812,5.9472656 5.9231374,6.0436912 5.8593785,6.1405819 5.7988281,6.2402344 5.7382778,6.3398868 5.680805,6.4421944 5.625,6.5449219 5.569195,6.6476494 5.5157515,6.7517711 5.4648437,6.8574219 5.413936,6.9630726 5.3661712,7.0693123 5.3203125,7.1777344 5.2744538,7.2861565 5.230111,7.3967708 5.1894531,7.5078125 5.1487953,7.6188542 5.111477,7.7302407 5.0761719,7.84375 5.0408668,7.9572593 5.0083162,8.0716748 4.9785156,8.1875 4.9487151,8.3033252 4.9206285,8.4210733 4.8964844,8.5390625 4.8723402,8.6570517 4.8523202,8.776483 4.8339844,8.8964844 4.8156485,9.0164857 4.7994851,9.1359508 4.7871094,9.2578125 4.7747336,9.3796742 4.7660294,9.503383 4.7597656,9.6269531 4.7535018,9.7505233 4.75,9.8748733 4.75,10 v 4 c 0,0.125128 0.0035,0.249476 0.00977,0.373047 0.00626,0.123571 0.014968,0.247278 0.027344,0.369141 0.012376,0.121862 0.028539,0.241325 0.046875,0.361328 0.018336,0.120002 0.038356,0.239432 0.0625,0.357422 0.024144,0.117989 0.052231,0.235736 0.082031,0.351562 0.029801,0.115826 0.062351,0.23024 0.097656,0.34375 0.035305,0.11351 0.072623,0.224896 0.1132812,0.335937 0.040658,0.111042 0.085001,0.221656 0.1308594,0.330079 0.045859,0.108422 0.093623,0.214661 0.1445312,0.320312 0.050908,0.105651 0.1043513,0.209773 0.1601563,0.3125 0.055805,0.102728 0.1132778,0.205035 0.1738281,0.304688 0.06055,0.09965 0.1243093,0.196543 0.1894531,0.292968 0.065144,0.09643 0.1315864,0.19211 0.2011719,0.285157 0.069586,0.09305 0.1429216,0.183921 0.2167969,0.273437 0.073875,0.08952 0.1485492,0.177839 0.2265625,0.263672 0.078013,0.08583 0.1582349,0.169954 0.2402344,0.251953 0.081999,0.082 0.1661194,0.162222 0.2519531,0.240234 0.085834,0.07801 0.1741557,0.152688 0.2636719,0.226563 0.089516,0.07388 0.1803907,0.147212 0.2734375,0.216797 0.093047,0.06959 0.1887307,0.136028 0.2851562,0.201172 0.096426,0.06514 0.1933163,0.128903 0.2929688,0.189453 0.099652,0.06055 0.20196,0.118023 0.3046875,0.173828 0.1027275,0.0558 0.2068492,0.109249 0.3125,0.160156 0.1056507,0.05091 0.2118904,0.09867 0.3203125,0.144531 0.1084221,0.04586 0.2190364,0.0902 0.3300781,0.13086 0.1110417,0.04066 0.2224282,0.07798 0.3359375,0.113281 0.1135093,0.03531 0.2279249,0.06786 0.3437499,0.09766 0.115825,0.0298 0.233573,0.05789 0.351563,0.08203 0.117989,0.02414 0.23742,0.04416 0.357421,0.0625 0.120002,0.01834 0.239467,0.0345 0.361329,0.04687 0.121861,0.01238 0.24557,0.02108 0.36914,0.02734 0.12357,0.0063 0.24792,0.0098 0.373047,0.0098 0.125128,0 0.249476,-0.0035 0.373047,-0.0098 0.123571,-0.0063 0.247278,-0.01497 0.369141,-0.02734 0.121862,-0.01238 0.241325,-0.02854 0.361328,-0.04687 0.120002,-0.01834 0.239432,-0.03836 0.357422,-0.0625 0.117989,-0.02414 0.235736,-0.05223 0.351562,-0.08203 0.115826,-0.0298 0.23024,-0.06235 0.34375,-0.09766 0.11351,-0.03531 0.224896,-0.07262 0.335938,-0.113281 0.111041,-0.04066 0.221655,-0.085 0.330078,-0.13086 0.108422,-0.04586 0.214661,-0.09362 0.320312,-0.144531 0.105651,-0.05091 0.209773,-0.104351 0.3125,-0.160156 0.102728,-0.0558 0.205035,-0.113278 0.304688,-0.173828 0.09965,-0.06055 0.196543,-0.12431 0.292968,-0.189453 0.09643,-0.06514 0.19211,-0.131587 0.285157,-0.201172 0.09305,-0.06959 0.183921,-0.142922 0.273437,-0.216797 0.08952,-0.07388 0.177839,-0.14855 0.263672,-0.226563 0.08583,-0.07801 0.169954,-0.158235 0.251953,-0.240234 0.082,-0.082 0.162222,-0.16612 0.240234,-0.251953 0.07801,-0.08583 0.152688,-0.174156 0.226563,-0.263672 0.07388,-0.08952 0.147212,-0.180391 0.216797,-0.273437 0.06959,-0.09305 0.136028,-0.188731 0.201172,-0.285157 0.06514,-0.09642 0.128903,-0.193316 0.189453,-0.292968 0.06055,-0.09965 0.118023,-0.20196 0.173828,-0.304688 0.0558,-0.102727 0.109249,-0.206849 0.160156,-0.3125 0.05091,-0.105651 0.09867,-0.21189 0.144531,-0.320312 0.04586,-0.108423 0.0902,-0.219037 0.13086,-0.330079 0.04066,-0.111041 0.07798,-0.222427 0.113281,-0.335937 0.03531,-0.11351 0.06786,-0.227924 0.09766,-0.34375 0.0298,-0.115826 0.05789,-0.233573 0.08203,-0.351562 0.02414,-0.11799 0.04416,-0.23742 0.0625,-0.357422 0.01834,-0.120003 0.0345,-0.239466 0.04687,-0.361328 0.01238,-0.121863 0.02108,-0.24557 0.02734,-0.369141 C 19.246498,14.249476 19.25,14.125128 19.25,14 V 10 C 19.25,9.8748733 19.2465,9.7505233 19.2402,9.6269531 19.233971,9.503383 19.225266,9.3796742 19.212891,9.2578125 19.200515,9.1359508 19.184351,9.0164857 19.166016,8.8964844 19.14768,8.776483 19.127659,8.6570517 19.103516,8.5390625 19.079372,8.4210733 19.051285,8.3033252 19.021484,8.1875 18.991684,8.0716748 18.959133,7.9572593 18.923828,7.84375 18.888523,7.7302407 18.851204,7.6188542 18.810547,7.5078125 18.769889,7.3967708 18.725546,7.2861565 18.679687,7.1777344 18.633829,7.0693123 18.586064,6.9630726 18.535156,6.8574219 18.484249,6.7517711 18.430805,6.6476494 18.375,6.5449219 18.319195,6.4421944 18.261722,6.3398868 18.201172,6.2402344 18.140622,6.1405819 18.076862,6.0436912 18.011719,5.9472656 17.946575,5.8508401 17.880132,5.7551562 17.810547,5.6621094 17.740962,5.5690626 17.667625,5.4781881 17.59375,5.3886719 17.519875,5.2991557 17.4452,5.2108337 17.367187,5.125 17.289175,5.0391663 17.208952,4.9550463 17.126953,4.8730469 17.044954,4.7910474 16.960833,4.7108258 16.875,4.6328125 16.789167,4.5547992 16.700844,4.4801253 16.611328,4.40625 16.521812,4.3323747 16.430937,4.2590386 16.337891,4.1894531 16.244844,4.1198676 16.14916,4.0534251 16.052734,3.9882813 15.956309,3.9231374 15.859418,3.8593785 15.759766,3.7988281 15.660113,3.7382778 15.557806,3.680805 15.455078,3.625 15.352351,3.569195 15.248229,3.5157515 15.142578,3.4648438 15.036927,3.413936 14.930688,3.3661712 14.822266,3.3203125 14.713843,3.2744538 14.603229,3.230111 14.492188,3.1894531 14.381146,3.1487953 14.26976,3.111477 14.15625,3.0761719 14.04274,3.0408668 13.928326,3.0083162 13.8125,2.9785156 c -0.115826,-0.029801 -0.233573,-0.057887 -0.351562,-0.082031 -0.11799,-0.024144 -0.23742,-0.044164 -0.357422,-0.0625 -0.120003,-0.018336 -0.239466,-0.034499 -0.361328,-0.046875 -0.121863,-0.012376 -0.24557,-0.02108 -0.369141,-0.027344 C 12.249476,2.7535018 12.125128,2.75 12,2.75 Z m 0,1.5 c 0.04798,0 0.09531,0.00452 0.142578,0.013672 0.04727,0.00915 0.09353,0.02271 0.138672,0.041016 0.04514,0.018306 0.08927,0.040901 0.130859,0.068359 0.04159,0.027458 0.08253,0.059092 0.119141,0.095703 l 2,2 c 0.03661,0.036611 0.06824,0.077553 0.0957,0.1191406 0.02746,0.041588 0.05005,0.085717 0.06836,0.1308594 0.01831,0.045142 0.03186,0.091397 0.04101,0.1386719 C 14.745481,6.9046966 14.75,6.9520144 14.75,7 c 0,0.047986 -0.0045,0.095303 -0.01367,0.1425781 -0.0092,0.047275 -0.02271,0.09353 -0.04101,0.1386719 -0.01831,0.045142 -0.0409,0.089272 -0.06836,0.1308594 -0.02746,0.041587 -0.05909,0.082529 -0.0957,0.1191406 -0.03661,0.036611 -0.07755,0.068245 -0.119141,0.095703 -0.04159,0.027458 -0.08572,0.050054 -0.130859,0.068359 -0.04514,0.018306 -0.0914,0.031863 -0.138672,0.041016 C 14.095307,7.7454809 14.047981,7.75 14,7.75 13.95202,7.75 13.90469,7.74548 13.857422,7.736328 13.810152,7.727178 13.763892,7.713618 13.71875,7.695312 13.67361,7.677006 13.62948,7.654411 13.587891,7.626953 13.546301,7.599495 13.505361,7.567861 13.46875,7.53125 L 12.75,6.8125 v 4.375 l 0.71875,-0.71875 c 0.03661,-0.03661 0.07755,-0.06824 0.119141,-0.0957 0.04159,-0.02746 0.08572,-0.05005 0.130859,-0.06836 0.04514,-0.01831 0.0914,-0.03186 0.138672,-0.04102 C 13.904693,10.254519 13.952019,10.25 14,10.25 c 0.04798,0 0.09531,0.0045 0.142578,0.01367 0.04727,0.0092 0.09353,0.02271 0.138672,0.04102 0.04514,0.01831 0.08927,0.0409 0.130859,0.06836 0.04159,0.02746 0.08253,0.05909 0.119141,0.0957 0.03661,0.03661 0.06824,0.07755 0.0957,0.119141 0.02746,0.04159 0.05005,0.08572 0.06836,0.130859 0.01831,0.04514 0.03186,0.0914 0.04101,0.138672 0.0092,0.04727 0.01367,0.0946 0.01367,0.142578 0,0.04798 -0.0045,0.09531 -0.01367,0.142578 -0.0092,0.04727 -0.02271,0.09353 -0.04101,0.138672 -0.01831,0.04514 -0.0409,0.08927 -0.06836,0.130859 -0.02746,0.04159 -0.05909,0.08253 -0.0957,0.119141 l -2,2 c -0.03661,0.03661 -0.07755,0.06824 -0.119141,0.0957 -0.04159,0.02746 -0.08572,0.05005 -0.130859,0.06836 -0.04514,0.01831 -0.0914,0.03186 -0.138672,0.04101 C 12.095307,13.745481 12.047981,13.75 12,13.75 c -0.04798,0 -0.09531,-0.0045 -0.142578,-0.01367 -0.04727,-0.0092 -0.09353,-0.02271 -0.138672,-0.04101 -0.04514,-0.01831 -0.08927,-0.0409 -0.130859,-0.06836 -0.04159,-0.02746 -0.08253,-0.05909 -0.119141,-0.0957 l -2,-2 C 9.432139,11.49465 9.400505,11.45371 9.373047,11.412119 9.345589,11.370529 9.322993,11.326399 9.304688,11.28126 9.286382,11.23612 9.272825,11.18986 9.263672,11.142588 9.2545191,11.095307 9.25,11.047981 9.25,11 c 0,-0.04798 0.00452,-0.09531 0.013672,-0.142578 0.00915,-0.04727 0.02271,-0.09353 0.041016,-0.138672 0.018306,-0.04514 0.040901,-0.08927 0.068359,-0.130859 0.027458,-0.04159 0.059092,-0.08253 0.095703,-0.119141 0.036611,-0.03661 0.077554,-0.06824 0.1191406,-0.0957 0.041586,-0.02746 0.083766,-0.05005 0.1289063,-0.06836 0.04514,-0.01831 0.093352,-0.03186 0.140625,-0.04102 C 9.9046944,10.254519 9.9520166,10.25 10,10.25 c 0.04798,0 0.0953,0.0045 0.142578,0.01367 0.04727,0.0092 0.09353,0.02271 0.138672,0.04102 0.04514,0.01831 0.08927,0.0409 0.130859,0.06836 0.04159,0.02746 0.08253,0.05909 0.119141,0.0957 L 11.25,11.1875 V 6.8125 L 10.53125,7.53125 C 10.49464,7.567861 10.4537,7.599495 10.412109,7.626953 10.370519,7.654411 10.326389,7.677007 10.28125,7.695312 10.23611,7.713618 10.18985,7.727175 10.142578,7.736328 10.095305,7.7454809 10.047983,7.75 10,7.75 9.952017,7.75 9.904694,7.74548 9.8574219,7.736328 9.8101489,7.727178 9.7619369,7.713618 9.7167969,7.695312 9.6716567,7.6770069 9.629477,7.6544115 9.5878906,7.6269531 9.5463042,7.5994947 9.5053612,7.5678612 9.46875,7.53125 9.4321388,7.4946388 9.4005053,7.4536969 9.3730469,7.4121094 9.3455885,7.3705219 9.3229931,7.326392 9.3046875,7.28125 9.2863819,7.236108 9.2728247,7.1898528 9.2636719,7.1425781 9.2545191,7.0953034 9.25,7.0479856 9.25,7 9.25,6.952014 9.25452,6.904697 9.263672,6.8574219 9.272822,6.8101469 9.286382,6.7638919 9.304688,6.71875 9.322994,6.673608 9.345589,6.629478 9.373047,6.5878906 9.400505,6.5463036 9.432139,6.5053616 9.46875,6.46875 l 2,-2 C 11.50536,4.432139 11.5463,4.400505 11.587891,4.373047 11.629481,4.345589 11.673611,4.322993 11.71875,4.304688 11.76389,4.286382 11.81015,4.272825 11.857422,4.263672 11.904693,4.2545191 11.952019,4.25 12,4.25 Z M 19.25,10 v 4 h 1.5 v -4 z m 1.5,4 h -1.5 c 0,0.125128 -0.0035,0.249476 -0.0098,0.373047 -0.0063,0.123571 -0.01497,0.247278 -0.02734,0.369141 -0.01238,0.121862 -0.02854,0.241325 -0.04687,0.361328 -0.01834,0.120002 -0.03836,0.239432 -0.0625,0.357422 -0.02414,0.117989 -0.05223,0.235736 -0.08203,0.351562 -0.0298,0.115826 -0.06235,0.23024 -0.09766,0.34375 -0.03531,0.11351 -0.07262,0.224896 -0.113281,0.335937 -0.04066,0.111042 -0.085,0.221656 -0.13086,0.330079 -0.04586,0.108422 -0.09362,0.214661 -0.144531,0.320312 -0.05091,0.105651 -0.104351,0.209773 -0.160156,0.3125 -0.0558,0.102728 -0.113278,0.205035 -0.173828,0.304688 -0.06055,0.09965 -0.12431,0.196543 -0.189453,0.292968 -0.06514,0.09643 -0.131587,0.19211 -0.201172,0.285157 -0.06959,0.09305 -0.142922,0.183921 -0.216797,0.273437 -0.07388,0.08952 -0.14855,0.177839 -0.226563,0.263672 -0.07801,0.08583 -0.158235,0.169954 -0.240234,0.251953 -0.082,0.082 -0.16612,0.162222 -0.251953,0.240234 -0.08583,0.07801 -0.174156,0.152688 -0.263672,0.226563 -0.08952,0.07388 -0.180391,0.147212 -0.273437,0.216797 -0.09305,0.06959 -0.188731,0.136028 -0.285157,0.201172 -0.09643,0.06514 -0.193316,0.128903 -0.292968,0.189453 -0.09965,0.06055 -0.20196,0.118023 -0.304688,0.173828 -0.102727,0.0558 -0.206849,0.109249 -0.3125,0.160156 -0.105651,0.05091 -0.21189,0.09867 -0.320312,0.144531 -0.108423,0.04586 -0.219037,0.0902 -0.330078,0.13086 -0.111042,0.04066 -0.222428,0.07798 -0.335938,0.113281 -0.11351,0.03531 -0.227924,0.06786 -0.34375,0.09766 -0.115826,0.0298 -0.233573,0.05789 -0.351562,0.08203 -0.11799,0.02414 -0.23742,0.04416 -0.357422,0.0625 -0.120003,0.01834 -0.239466,0.0345 -0.361328,0.04687 -0.121863,0.01238 -0.24557,0.02108 -0.369141,0.02734 C 12.249476,21.246498 12.125128,21.25 12,21.25 v 1.5 c 0.151015,0 0.302035,-0.0042 0.451172,-0.01172 0.149137,-0.0076 0.296285,-0.01827 0.443359,-0.0332 0.147075,-0.01494 0.292671,-0.03451 0.4375,-0.05664 0.14483,-0.02213 0.28924,-0.04703 0.431641,-0.07617 0.142401,-0.02914 0.284039,-0.06169 0.423828,-0.09766 0.139789,-0.03597 0.277068,-0.07458 0.414063,-0.117187 0.136994,-0.04261 0.272234,-0.0896 0.40625,-0.138672 0.134015,-0.04907 0.267583,-0.100903 0.398437,-0.15625 0.130854,-0.05535 0.259209,-0.114341 0.386719,-0.175781 0.127509,-0.06144 0.252971,-0.126009 0.376953,-0.19336 0.123981,-0.06735 0.246917,-0.137859 0.367187,-0.210937 0.120271,-0.07308 0.239094,-0.147941 0.355469,-0.226563 0.116376,-0.07862 0.229499,-0.160158 0.341797,-0.24414 0.112298,-0.08398 0.223995,-0.170606 0.332031,-0.259766 0.108037,-0.08916 0.212814,-0.181237 0.316406,-0.275391 0.103593,-0.09415 0.205723,-0.190097 0.304688,-0.289062 0.09896,-0.09896 0.194909,-0.201095 0.289062,-0.304688 0.09415,-0.103592 0.186231,-0.208369 0.275391,-0.316406 0.08916,-0.108036 0.175783,-0.219733 0.259766,-0.332031 0.08398,-0.112298 0.165519,-0.225421 0.24414,-0.341797 0.07862,-0.116375 0.153485,-0.235198 0.226563,-0.355469 0.07308,-0.12027 0.143587,-0.243206 0.210937,-0.367187 0.06735,-0.123982 0.131919,-0.249444 0.19336,-0.376953 0.06144,-0.12751 0.120434,-0.255865 0.175781,-0.386719 0.05535,-0.130854 0.10718,-0.264422 0.15625,-0.398438 0.04907,-0.134015 0.09606,-0.269255 0.138672,-0.40625 0.04261,-0.136994 0.08122,-0.274273 0.117187,-0.414062 0.03597,-0.139789 0.06852,-0.281427 0.09766,-0.423828 0.02914,-0.142401 0.05404,-0.286811 0.07617,-0.431641 0.02213,-0.144829 0.04171,-0.290425 0.05664,-0.4375 0.01494,-0.147074 0.02564,-0.294222 0.0332,-0.443359 C 20.745841,14.302035 20.75,14.151015 20.75,14 Z M 12,22.75 v -1.5 c -0.125127,0 -0.249477,-0.0035 -0.373047,-0.0098 -0.12357,-0.0063 -0.247279,-0.01497 -0.36914,-0.02734 -0.121862,-0.01238 -0.241327,-0.02854 -0.361329,-0.04687 -0.120001,-0.01834 -0.239432,-0.03836 -0.357421,-0.0625 C 10.421073,21.07935 10.303325,21.05126 10.1875,21.02146 10.071675,20.99166 9.9572593,20.95911 9.84375,20.9238 9.7302407,20.88849 9.6188542,20.85118 9.5078125,20.810519 9.3967708,20.769859 9.2861565,20.725519 9.1777344,20.679659 9.0693123,20.633829 8.9630726,20.586064 8.8574219,20.535156 8.7517711,20.484249 8.6476494,20.430805 8.5449219,20.375 8.4421944,20.319195 8.3398868,20.261722 8.2402344,20.201172 8.1405819,20.140622 8.0436912,20.076862 7.9472656,20.011719 7.8508401,19.946575 7.7551562,19.880132 7.6621094,19.810547 7.5690626,19.740962 7.4781881,19.667625 7.3886719,19.59375 7.2991557,19.519875 7.2108337,19.4452 7.125,19.367187 7.0391663,19.289175 6.9550463,19.208952 6.8730469,19.126953 6.7910474,19.044954 6.7108258,18.960833 6.6328125,18.875 6.5547992,18.789167 6.4801253,18.700844 6.40625,18.611328 6.3323747,18.521812 6.2590386,18.430937 6.1894531,18.337891 6.1198676,18.244844 6.0534251,18.14916 5.9882812,18.052734 5.9231374,17.956309 5.8593785,17.859418 5.7988281,17.759766 5.7382778,17.660113 5.680805,17.557806 5.625,17.455078 5.569195,17.352351 5.5157515,17.248229 5.4648437,17.142578 5.413936,17.036927 5.3661712,16.930688 5.3203125,16.822266 5.2744538,16.713843 5.230111,16.603229 5.1894531,16.492187 5.1487953,16.381146 5.111477,16.26976 5.0761719,16.15625 5.0408668,16.04274 5.0083162,15.928326 4.9785156,15.8125 c -0.0298,-0.115826 -0.057887,-0.233573 -0.082031,-0.351562 -0.024144,-0.11799 -0.044164,-0.23742 -0.0625,-0.357422 -0.018336,-0.120003 -0.034499,-0.239466 -0.046875,-0.361328 -0.012376,-0.121863 -0.02108,-0.24557 -0.027344,-0.369141 C 4.7535018,14.249476 4.75,14.125128 4.75,14 h -1.5 c 0,0.151015 0.00416,0.302035 0.011719,0.451172 0.00756,0.149137 0.018267,0.296285 0.033203,0.443359 0.014936,0.147075 0.034511,0.292671 0.056641,0.4375 0.02213,0.14483 0.047032,0.28924 0.076172,0.431641 0.029139,0.142401 0.06169,0.284039 0.097656,0.423828 0.035966,0.139789 0.074578,0.277068 0.1171875,0.414062 0.04261,0.136995 0.089602,0.272235 0.1386719,0.40625 0.04907,0.134016 0.1009033,0.267584 0.15625,0.398438 0.055347,0.130854 0.1143409,0.259209 0.1757812,0.386719 0.06144,0.127509 0.1260086,0.252971 0.1933594,0.376953 0.067351,0.123981 0.1378596,0.246917 0.2109375,0.367187 0.073078,0.120271 0.1479407,0.239094 0.2265625,0.355469 0.078622,0.116376 0.1601582,0.229499 0.2441406,0.341797 0.083982,0.112298 0.1706058,0.223995 0.2597657,0.332031 0.08916,0.108037 0.1812366,0.212814 0.2753906,0.316406 0.094154,0.103593 0.1900977,0.205723 0.2890625,0.304688 0.098965,0.09896 0.2010951,0.194909 0.3046875,0.289062 0.1035924,0.09415 0.2083695,0.186231 0.3164062,0.275391 0.1080368,0.08916 0.2197335,0.175783 0.3320313,0.259766 0.1122978,0.08398 0.2254212,0.165519 0.3417969,0.24414 0.1163756,0.07862 0.2351985,0.153485 0.3554687,0.226563 0.1202702,0.07308 0.243206,0.143587 0.3671875,0.210937 0.1239815,0.06735 0.2494436,0.131919 0.3769532,0.19336 0.1275095,0.06144 0.2558644,0.120434 0.3867187,0.175781 0.1308543,0.05535 0.2644217,0.10718 0.3984375,0.15625 0.1340158,0.04907 0.2692559,0.09606 0.40625,0.138672 0.1369941,0.04261 0.2742734,0.08122 0.4140625,0.117187 0.1397891,0.03597 0.2814266,0.06852 0.4238276,0.09766 0.142401,0.02914 0.286811,0.05404 0.431641,0.07617 0.144829,0.02213 0.290425,0.04171 0.4375,0.05664 0.147074,0.01494 0.294223,0.02564 0.443359,0.0332 C 11.697965,22.745841 11.848985,22.75 12,22.75 Z M 3.25,14 h 1.5 V 10 H 3.25 Z M 12,4.25 c -0.04798,0 -0.09531,0.00452 -0.142578,0.013672 -0.04727,0.00915 -0.09353,0.02271 -0.138672,0.041016 -0.04514,0.018306 -0.08927,0.040901 -0.130859,0.068359 -0.04159,0.027458 -0.08253,0.059092 -0.119141,0.095703 L 12,5 12.53125,4.46875 C 12.49464,4.432139 12.4537,4.400505 12.412109,4.373047 12.370519,4.345589 12.326389,4.322993 12.28125,4.304688 12.23611,4.286382 12.18985,4.272825 12.142578,4.263672 12.095307,4.2545191 12.047981,4.25 12,4.25 Z M 12.53125,4.46875 12,5 h 0.75 v 1.8125 l 0.71875,0.71875 1.0625,-1.0625 z m 2,2 -1.0625,1.0625 c 0.03661,0.036611 0.07755,0.068245 0.119141,0.095703 0.04159,0.027458 0.08572,0.050054 0.130859,0.068359 0.04514,0.018306 0.0914,0.031863 0.138672,0.041016 C 13.904693,7.7454809 13.952019,7.75 14,7.75 c 0.04798,0 0.09531,-0.00452 0.142578,-0.013672 0.04727,-0.00915 0.09353,-0.02271 0.138672,-0.041016 0.04514,-0.018306 0.08927,-0.040901 0.130859,-0.068359 0.04159,-0.027458 0.08253,-0.059092 0.119141,-0.095703 0.03661,-0.036611 0.06824,-0.077553 0.0957,-0.1191406 C 14.65441,7.3705214 14.677,7.3263924 14.69531,7.28125 14.71362,7.236108 14.72717,7.189853 14.73632,7.1425781 14.745481,7.0953034 14.75,7.0479856 14.75,7 14.75,6.952014 14.7455,6.904697 14.73633,6.8574219 14.72713,6.8101469 14.71362,6.7638919 14.69532,6.71875 14.67701,6.673608 14.65442,6.629478 14.62696,6.5878906 14.5995,6.5463036 14.56787,6.5053616 14.53126,6.46875 Z M 12.75,6.8125 12,6.0625 l -0.75,0.75 v 4.375 l 0.75,0.75 0.75,-0.75 z m 0,0 V 5 H 12 L 12.53125,5.53125 12,6.0625 Z M 12,6.0625 11.46875,5.53125 12,5 h -0.75 v 1.8125 z m 0,0 L 12.53125,5.53125 12,5 11.46875,5.53125 Z M 12,5 11.46875,4.46875 l -2,2 1.0625,1.0625 L 11.25,6.8125 V 5 Z M 10.53125,7.53125 9.46875,6.46875 C 9.4321388,6.5053612 9.4005053,6.5463031 9.3730469,6.5878906 9.3455885,6.6294781 9.3229931,6.673608 9.3046875,6.71875 9.2863819,6.763892 9.2728247,6.8101472 9.2636719,6.8574219 9.2545191,6.9046966 9.25,6.9520144 9.25,7 c 0,0.047986 0.00452,0.095303 0.013672,0.1425781 0.00915,0.047275 0.02271,0.09353 0.041016,0.1386719 0.018306,0.045142 0.040901,0.089272 0.068359,0.1308594 0.027458,0.041587 0.059092,0.082529 0.095703,0.1191406 0.036611,0.036611 0.077554,0.068245 0.1191406,0.095703 0.041586,0.027458 0.083766,0.050054 0.1289063,0.068359 0.04514,0.018306 0.093352,0.031863 0.140625,0.041016 C 9.9046944,7.7454809 9.9520166,7.75 10,7.75 c 0.04798,0 0.0953,-0.00452 0.142578,-0.013672 0.04727,-0.00915 0.09353,-0.02271 0.138672,-0.041016 0.04514,-0.018306 0.08927,-0.040901 0.130859,-0.068359 0.04159,-0.027458 0.08253,-0.059092 0.119141,-0.095703 z M 12.75,11.1875 V 13 H 12 l 0.53125,0.53125 2,-2 -1.0625,-1.0625 z m 0,0 -0.75,0.75 0.53125,0.53125 L 12,13 h 0.75 z M 12,13 11.46875,13.53125 c 0.03661,0.03661 0.07755,0.06824 0.119141,0.0957 0.04159,0.02746 0.08572,0.05005 0.130859,0.06836 0.04514,0.01831 0.0914,0.03186 0.138672,0.04101 0.04727,0.0092 0.0946,0.01367 0.142578,0.01367 0.04798,0 0.09531,-0.0045 0.142578,-0.01367 0.04727,-0.0092 0.09353,-0.02271 0.138672,-0.04101 0.04514,-0.01831 0.08927,-0.0409 0.130859,-0.06836 0.04159,-0.02746 0.08253,-0.05909 0.119141,-0.0957 z m 0,0 h -0.75 v -1.8125 l -0.71875,-0.71875 -1.0625,1.0625 2,2 z M 12,13 11.46875,12.46875 12,11.9375 11.25,11.1875 V 13 Z m 0,0 0.53125,-0.53125 L 12,11.9375 11.46875,12.46875 Z m -2.53125,-1.46875 1.0625,-1.0625 C 10.49464,10.43214 10.4537,10.40051 10.412109,10.37305 10.370519,10.34559 10.326389,10.323 10.28125,10.30469 10.23611,10.28638 10.18985,10.27283 10.142578,10.26367 10.095305,10.254519 10.047983,10.25 10,10.25 c -0.047983,0 -0.095306,0.0045 -0.1425781,0.01367 -0.047273,0.0092 -0.095485,0.02271 -0.140625,0.04102 -0.04514,0.01831 -0.08732,0.0409 -0.1289063,0.06836 -0.041586,0.02746 -0.082529,0.05909 -0.1191406,0.0957 -0.036611,0.03661 -0.068245,0.07755 -0.095703,0.119141 -0.027458,0.04159 -0.050054,0.08572 -0.068359,0.130859 -0.018306,0.04514 -0.031863,0.0914 -0.041016,0.138672 C 9.2545191,10.904693 9.25,10.952019 9.25,11 c 0,0.04798 0.00452,0.09531 0.013672,0.142578 0.00915,0.04727 0.02271,0.09353 0.041016,0.138672 0.018306,0.04514 0.040901,0.08927 0.068359,0.130859 0.027458,0.04159 0.059092,0.08253 0.095703,0.119141 z m 4,-1.0625 1.0625,1.0625 c 0.03661,-0.03661 0.06824,-0.07755 0.0957,-0.119141 0.02746,-0.04159 0.05005,-0.08572 0.06836,-0.130859 0.01831,-0.04514 0.03186,-0.0914 0.04101,-0.138672 C 14.745481,11.095307 14.75,11.047981 14.75,11 c 0,-0.04798 -0.0045,-0.09531 -0.01367,-0.142578 -0.0092,-0.04727 -0.02271,-0.09353 -0.04101,-0.138672 -0.01831,-0.04514 -0.0409,-0.08927 -0.06836,-0.130859 -0.02746,-0.04159 -0.05909,-0.08253 -0.0957,-0.119141 -0.03661,-0.03661 -0.07755,-0.06824 -0.119141,-0.0957 C 14.370529,10.34559 14.326399,10.323 14.28126,10.30469 14.23612,10.28638 14.18986,10.27283 14.142588,10.26367 14.095307,10.254519 14.047981,10.25 14,10.25 c -0.04798,0 -0.09531,0.0045 -0.142578,0.01367 -0.04727,0.0092 -0.09353,0.02271 -0.138672,0.04102 -0.04514,0.01831 -0.08927,0.0409 -0.130859,0.06836 -0.04159,0.02746 -0.08253,0.05909 -0.119141,0.0957 z" />
</svg>
