<?xml version="1.0" encoding="UTF-8" standalone="no"?>
<!-- Created with Inkscape (http://www.inkscape.org/) -->

<svg
   width="128"
   height="128"
   viewBox="0 0 33.866667 33.866666"
   version="1.1"
   id="svg1"
   inkscape:version="1.3 (0e150ed6c4, 2023-07-21)"
   sodipodi:docname="u_overlay_dot_tile_5.svg"
   inkscape:export-filename="..\..\ResourcesData\Resources\Textures\UI\u_overlay_dot_tile_5.png"
   inkscape:export-xdpi="96"
   inkscape:export-ydpi="96"
   xmlns:inkscape="http://www.inkscape.org/namespaces/inkscape"
   xmlns:sodipodi="http://sodipodi.sourceforge.net/DTD/sodipodi-0.dtd"
   xmlns="http://www.w3.org/2000/svg"
   xmlns:svg="http://www.w3.org/2000/svg">
  <sodipodi:namedview
     id="namedview1"
     pagecolor="#ffffff"
     bordercolor="#000000"
     borderopacity="0.25"
     inkscape:showpageshadow="2"
     inkscape:pageopacity="0.0"
     inkscape:pagecheckerboard="true"
     inkscape:deskcolor="#d1d1d1"
     inkscape:document-units="mm"
     inkscape:zoom="4.1373683"
     inkscape:cx="42.780818"
     inkscape:cy="69.488617"
     inkscape:window-width="1920"
     inkscape:window-height="1017"
     inkscape:window-x="-8"
     inkscape:window-y="-8"
     inkscape:window-maximized="1"
     inkscape:current-layer="layer1" />
  <defs
     id="defs1">
    <inkscape:path-effect
       effect="tiling"
       id="path-effect1"
       is_visible="true"
       lpeversion="1"
       unit="px"
       seed="1;1"
       lpesatellites=""
       num_rows="8"
       num_cols="8"
       gapx="6"
       gapy="6"
       offset="0"
       offset_type="false"
       scale="0"
       rotate="0"
       mirrorrowsx="false"
       mirrorrowsy="false"
       mirrorcolsx="false"
       mirrorcolsy="false"
       mirrortrans="false"
       shrink_interp="false"
       split_items="false"
       link_styles="false"
       interpolate_scalex="false"
       interpolate_scaley="true"
       interpolate_rotatex="false"
       interpolate_rotatey="true"
       random_scale="false"
       random_rotate="false"
       random_gap_y="false"
       random_gap_x="false"
       transformorigin="" />
  </defs>
  <g
     inkscape:label="Layer 1"
     inkscape:groupmode="layer"
     id="layer1">
    <path
       style="fill:#ffffff;stroke:none;stroke-width:1.667;stroke-dasharray:none;fill-opacity:1"
       id="path1"
       inkscape:path-effect="#path-effect1"
       sodipodi:type="arc"
       sodipodi:cx="1.3229166"
       sodipodi:cy="1.3228686"
       sodipodi:rx="1.3229166"
       sodipodi:ry="1.3228686"
       d="m 2.6458333,1.3228686 c 0,0.7306001 -0.59229,1.3228686 -1.3229167,1.3228686 C 0.59228995,2.6457372 0,2.0534687 0,1.3228686 0,0.59226844 0.59228995,0 1.3229166,0 2.0535433,0 2.6458333,0.59226844 2.6458333,1.3228686 Z m 4.2333332,0 c 0,0.7306001 -0.5922899,1.3228686 -1.3229166,1.3228686 -0.7306267,0 -1.3229166,-0.5922685 -1.3229166,-1.3228686 C 4.2333333,0.59226844 4.8256232,0 5.5562499,0 6.2868766,0 6.8791665,0.59226844 6.8791665,1.3228686 Z m 4.2333335,0 c 0,0.7306001 -0.59229,1.3228686 -1.3229169,1.3228686 -0.7306266,0 -1.3229166,-0.5922685 -1.3229166,-1.3228686 C 8.4666665,0.59226844 9.0589565,0 9.7895831,0 10.52021,0 11.1125,0.59226844 11.1125,1.3228686 Z m 4.233333,0 c 0,0.7306001 -0.59229,1.3228686 -1.322917,1.3228686 C 13.29229,2.6457372 12.7,2.0534687 12.7,1.3228686 12.7,0.59226844 13.29229,0 14.022916,0 c 0.730627,0 1.322917,0.59226844 1.322917,1.3228686 z m 4.233333,0 c 0,0.7306001 -0.59229,1.3228686 -1.322916,1.3228686 -0.730627,0 -1.322917,-0.5922685 -1.322917,-1.3228686 C 16.933333,0.59226844 17.525623,0 18.25625,0 c 0.730626,0 1.322916,0.59226844 1.322916,1.3228686 z m 4.233334,0 c 0,0.7306001 -0.59229,1.3228686 -1.322917,1.3228686 -0.730627,0 -1.322917,-0.5922685 -1.322917,-1.3228686 C 21.166666,0.59226844 21.758956,0 22.489583,0 23.22021,0 23.8125,0.59226844 23.8125,1.3228686 Z m 4.233333,0 c 0,0.7306001 -0.59229,1.3228686 -1.322917,1.3228686 C 25.992289,2.6457372 25.4,2.0534687 25.4,1.3228686 25.4,0.59226844 25.992289,0 26.722916,0 c 0.730627,0 1.322917,0.59226844 1.322917,1.3228686 z m 4.233333,0 c 0,0.7306001 -0.59229,1.3228686 -1.322917,1.3228686 -0.730626,0 -1.322916,-0.5922685 -1.322916,-1.3228686 C 29.633333,0.59226844 30.225623,0 30.956249,0 c 0.730627,0 1.322917,0.59226844 1.322917,1.3228686 z M 2.6458333,5.5561058 c 0,0.7306001 -0.59229,1.3228685 -1.3229167,1.3228685 C 0.59228995,6.8789743 0,6.2867059 0,5.5561058 0,4.8255056 0.59228995,4.2332372 1.3229166,4.2332372 c 0.7306267,0 1.3229167,0.5922684 1.3229167,1.3228686 z m 4.2333332,0 c 0,0.7306001 -0.5922899,1.3228685 -1.3229166,1.3228685 -0.7306267,0 -1.3229166,-0.5922684 -1.3229166,-1.3228685 0,-0.7306002 0.5922899,-1.3228686 1.3229166,-1.3228686 0.7306267,0 1.3229166,0.5922684 1.3229166,1.3228686 z m 4.2333335,0 c 0,0.7306001 -0.59229,1.3228685 -1.3229169,1.3228685 -0.7306266,0 -1.3229166,-0.5922684 -1.3229166,-1.3228685 0,-0.7306002 0.59229,-1.3228686 1.3229166,-1.3228686 0.7306269,0 1.3229169,0.5922684 1.3229169,1.3228686 z m 4.233333,0 c 0,0.7306001 -0.59229,1.3228685 -1.322917,1.3228685 C 13.29229,6.8789743 12.7,6.2867059 12.7,5.5561058 c 0,-0.7306002 0.59229,-1.3228686 1.322916,-1.3228686 0.730627,0 1.322917,0.5922684 1.322917,1.3228686 z m 4.233333,0 c 0,0.7306001 -0.59229,1.3228685 -1.322916,1.3228685 -0.730627,0 -1.322917,-0.5922684 -1.322917,-1.3228685 0,-0.7306002 0.59229,-1.3228686 1.322917,-1.3228686 0.730626,0 1.322916,0.5922684 1.322916,1.3228686 z m 4.233334,0 c 0,0.7306001 -0.59229,1.3228685 -1.322917,1.3228685 -0.730627,0 -1.322917,-0.5922684 -1.322917,-1.3228685 0,-0.7306002 0.59229,-1.3228686 1.322917,-1.3228686 0.730627,0 1.322917,0.5922684 1.322917,1.3228686 z m 4.233333,0 c 0,0.7306001 -0.59229,1.3228685 -1.322917,1.3228685 -0.730627,0 -1.322916,-0.5922684 -1.322916,-1.3228685 0,-0.7306002 0.592289,-1.3228686 1.322916,-1.3228686 0.730627,0 1.322917,0.5922684 1.322917,1.3228686 z m 4.233333,0 c 0,0.7306001 -0.59229,1.3228685 -1.322917,1.3228685 -0.730626,0 -1.322916,-0.5922684 -1.322916,-1.3228685 0,-0.7306002 0.59229,-1.3228686 1.322916,-1.3228686 0.730627,0 1.322917,0.5922684 1.322917,1.3228686 z M 2.6458333,9.7893429 c 0,0.7306001 -0.59229,1.3228691 -1.3229167,1.3228691 C 0.59228995,11.112212 0,10.519943 0,9.7893429 0,9.0587428 0.59228995,8.4664743 1.3229166,8.4664743 c 0.7306267,0 1.3229167,0.5922685 1.3229167,1.3228686 z m 4.2333332,0 c 0,0.7306001 -0.5922899,1.3228691 -1.3229166,1.3228691 -0.7306267,0 -1.3229166,-0.592269 -1.3229166,-1.3228691 0,-0.7306001 0.5922899,-1.3228686 1.3229166,-1.3228686 0.7306267,0 1.3229166,0.5922685 1.3229166,1.3228686 z m 4.2333335,0 c 0,0.7306001 -0.59229,1.3228691 -1.3229169,1.3228691 -0.7306266,0 -1.3229166,-0.592269 -1.3229166,-1.3228691 0,-0.7306001 0.59229,-1.3228686 1.3229166,-1.3228686 0.7306269,0 1.3229169,0.5922685 1.3229169,1.3228686 z m 4.233333,0 c 0,0.7306001 -0.59229,1.3228691 -1.322917,1.3228691 -0.730626,0 -1.322916,-0.592269 -1.322916,-1.3228691 0,-0.7306001 0.59229,-1.3228686 1.322916,-1.3228686 0.730627,0 1.322917,0.5922685 1.322917,1.3228686 z m 4.233333,0 c 0,0.7306001 -0.59229,1.3228691 -1.322916,1.3228691 -0.730627,0 -1.322917,-0.592269 -1.322917,-1.3228691 0,-0.7306001 0.59229,-1.3228686 1.322917,-1.3228686 0.730626,0 1.322916,0.5922685 1.322916,1.3228686 z m 4.233334,0 c 0,0.7306001 -0.59229,1.3228691 -1.322917,1.3228691 -0.730627,0 -1.322917,-0.592269 -1.322917,-1.3228691 0,-0.7306001 0.59229,-1.3228686 1.322917,-1.3228686 0.730627,0 1.322917,0.5922685 1.322917,1.3228686 z m 4.233333,0 c 0,0.7306001 -0.59229,1.3228691 -1.322917,1.3228691 -0.730627,0 -1.322916,-0.592269 -1.322916,-1.3228691 0,-0.7306001 0.592289,-1.3228686 1.322916,-1.3228686 0.730627,0 1.322917,0.5922685 1.322917,1.3228686 z m 4.233333,0 c 0,0.7306001 -0.59229,1.3228691 -1.322917,1.3228691 -0.730626,0 -1.322916,-0.592269 -1.322916,-1.3228691 0,-0.7306001 0.59229,-1.3228686 1.322916,-1.3228686 0.730627,0 1.322917,0.5922685 1.322917,1.3228686 z M 2.6458333,14.02258 c 0,0.7306 -0.59229,1.322869 -1.3229167,1.322869 C 0.59228995,15.345449 0,14.75318 0,14.02258 c 0,-0.7306 0.59228995,-1.322868 1.3229166,-1.322868 0.7306267,0 1.3229167,0.592268 1.3229167,1.322868 z m 4.2333332,0 c 0,0.7306 -0.5922899,1.322869 -1.3229166,1.322869 -0.7306267,0 -1.3229166,-0.592269 -1.3229166,-1.322869 0,-0.7306 0.5922899,-1.322868 1.3229166,-1.322868 0.7306267,0 1.3229166,0.592268 1.3229166,1.322868 z m 4.2333335,0 c 0,0.7306 -0.59229,1.322869 -1.3229169,1.322869 -0.7306266,0 -1.3229166,-0.592269 -1.3229166,-1.322869 0,-0.7306 0.59229,-1.322868 1.3229166,-1.322868 0.7306269,0 1.3229169,0.592268 1.3229169,1.322868 z m 4.233333,0 c 0,0.7306 -0.59229,1.322869 -1.322917,1.322869 C 13.29229,15.345449 12.7,14.75318 12.7,14.02258 c 0,-0.7306 0.59229,-1.322868 1.322916,-1.322868 0.730627,0 1.322917,0.592268 1.322917,1.322868 z m 4.233333,0 c 0,0.7306 -0.59229,1.322869 -1.322916,1.322869 -0.730627,0 -1.322917,-0.592269 -1.322917,-1.322869 0,-0.7306 0.59229,-1.322868 1.322917,-1.322868 0.730626,0 1.322916,0.592268 1.322916,1.322868 z m 4.233334,0 c 0,0.7306 -0.59229,1.322869 -1.322917,1.322869 -0.730627,0 -1.322917,-0.592269 -1.322917,-1.322869 0,-0.7306 0.59229,-1.322868 1.322917,-1.322868 0.730627,0 1.322917,0.592268 1.322917,1.322868 z m 4.233333,0 c 0,0.7306 -0.59229,1.322869 -1.322917,1.322869 -0.730627,0 -1.322916,-0.592269 -1.322916,-1.322869 0,-0.7306 0.592289,-1.322868 1.322916,-1.322868 0.730627,0 1.322917,0.592268 1.322917,1.322868 z m 4.233333,0 c 0,0.7306 -0.59229,1.322869 -1.322917,1.322869 -0.730626,0 -1.322916,-0.592269 -1.322916,-1.322869 0,-0.7306 0.59229,-1.322868 1.322916,-1.322868 0.730627,0 1.322917,0.592268 1.322917,1.322868 z M 2.6458333,18.255817 c 0,0.7306 -0.59229,1.322869 -1.3229167,1.322869 C 0.59228995,19.578686 0,18.986417 0,18.255817 c 0,-0.7306 0.59228995,-1.322868 1.3229166,-1.322868 0.7306267,0 1.3229167,0.592268 1.3229167,1.322868 z m 4.2333332,0 c 0,0.7306 -0.5922899,1.322869 -1.3229166,1.322869 -0.7306267,0 -1.3229166,-0.592269 -1.3229166,-1.322869 0,-0.7306 0.5922899,-1.322868 1.3229166,-1.322868 0.7306267,0 1.3229166,0.592268 1.3229166,1.322868 z m 4.2333335,0 c 0,0.7306 -0.59229,1.322869 -1.3229169,1.322869 -0.7306266,0 -1.3229166,-0.592269 -1.3229166,-1.322869 0,-0.7306 0.59229,-1.322868 1.3229166,-1.322868 0.7306269,0 1.3229169,0.592268 1.3229169,1.322868 z m 4.233333,0 c 0,0.7306 -0.59229,1.322869 -1.322917,1.322869 -0.730626,0 -1.322916,-0.592269 -1.322916,-1.322869 0,-0.7306 0.59229,-1.322868 1.322916,-1.322868 0.730627,0 1.322917,0.592268 1.322917,1.322868 z m 4.233333,0 c 0,0.7306 -0.59229,1.322869 -1.322916,1.322869 -0.730627,0 -1.322917,-0.592269 -1.322917,-1.322869 0,-0.7306 0.59229,-1.322868 1.322917,-1.322868 0.730626,0 1.322916,0.592268 1.322916,1.322868 z m 4.233334,0 c 0,0.7306 -0.59229,1.322869 -1.322917,1.322869 -0.730627,0 -1.322917,-0.592269 -1.322917,-1.322869 0,-0.7306 0.59229,-1.322868 1.322917,-1.322868 0.730627,0 1.322917,0.592268 1.322917,1.322868 z m 4.233333,0 c 0,0.7306 -0.59229,1.322869 -1.322917,1.322869 -0.730627,0 -1.322916,-0.592269 -1.322916,-1.322869 0,-0.7306 0.592289,-1.322868 1.322916,-1.322868 0.730627,0 1.322917,0.592268 1.322917,1.322868 z m 4.233333,0 c 0,0.7306 -0.59229,1.322869 -1.322917,1.322869 -0.730626,0 -1.322916,-0.592269 -1.322916,-1.322869 0,-0.7306 0.59229,-1.322868 1.322916,-1.322868 0.730627,0 1.322917,0.592268 1.322917,1.322868 z M 2.6458333,22.489054 c 0,0.730601 -0.59229,1.322869 -1.3229167,1.322869 C 0.59228995,23.811923 0,23.219655 0,22.489054 c 0,-0.7306 0.59228995,-1.322868 1.3229166,-1.322868 0.7306267,0 1.3229167,0.592268 1.3229167,1.322868 z m 4.2333332,0 c 0,0.730601 -0.5922899,1.322869 -1.3229166,1.322869 -0.7306267,0 -1.3229166,-0.592268 -1.3229166,-1.322869 0,-0.7306 0.5922899,-1.322868 1.3229166,-1.322868 0.7306267,0 1.3229166,0.592268 1.3229166,1.322868 z m 4.2333335,0 c 0,0.730601 -0.59229,1.322869 -1.3229169,1.322869 -0.7306266,0 -1.3229166,-0.592268 -1.3229166,-1.322869 0,-0.7306 0.59229,-1.322868 1.3229166,-1.322868 0.7306269,0 1.3229169,0.592268 1.3229169,1.322868 z m 4.233333,0 c 0,0.730601 -0.59229,1.322869 -1.322917,1.322869 -0.730626,0 -1.322916,-0.592268 -1.322916,-1.322869 0,-0.7306 0.59229,-1.322868 1.322916,-1.322868 0.730627,0 1.322917,0.592268 1.322917,1.322868 z m 4.233333,0 c 0,0.730601 -0.59229,1.322869 -1.322916,1.322869 -0.730627,0 -1.322917,-0.592268 -1.322917,-1.322869 0,-0.7306 0.59229,-1.322868 1.322917,-1.322868 0.730626,0 1.322916,0.592268 1.322916,1.322868 z m 4.233334,0 c 0,0.730601 -0.59229,1.322869 -1.322917,1.322869 -0.730627,0 -1.322917,-0.592268 -1.322917,-1.322869 0,-0.7306 0.59229,-1.322868 1.322917,-1.322868 0.730627,0 1.322917,0.592268 1.322917,1.322868 z m 4.233333,0 c 0,0.730601 -0.59229,1.322869 -1.322917,1.322869 -0.730627,0 -1.322916,-0.592268 -1.322916,-1.322869 0,-0.7306 0.592289,-1.322868 1.322916,-1.322868 0.730627,0 1.322917,0.592268 1.322917,1.322868 z m 4.233333,0 c 0,0.730601 -0.59229,1.322869 -1.322917,1.322869 -0.730626,0 -1.322916,-0.592268 -1.322916,-1.322869 0,-0.7306 0.59229,-1.322868 1.322916,-1.322868 0.730627,0 1.322917,0.592268 1.322917,1.322868 z M 2.6458333,26.722292 c 0,0.7306 -0.59229,1.322868 -1.3229167,1.322868 C 0.59228995,28.04516 0,27.452892 0,26.722292 c 0,-0.730601 0.59228995,-1.322869 1.3229166,-1.322869 0.7306267,0 1.3229167,0.592268 1.3229167,1.322869 z m 4.2333332,0 c 0,0.7306 -0.5922899,1.322868 -1.3229166,1.322868 -0.7306267,0 -1.3229166,-0.592268 -1.3229166,-1.322868 0,-0.730601 0.5922899,-1.322869 1.3229166,-1.322869 0.7306267,0 1.3229166,0.592268 1.3229166,1.322869 z m 4.2333335,0 c 0,0.7306 -0.59229,1.322868 -1.3229169,1.322868 -0.7306266,0 -1.3229166,-0.592268 -1.3229166,-1.322868 0,-0.730601 0.59229,-1.322869 1.3229166,-1.322869 0.7306269,0 1.3229169,0.592268 1.3229169,1.322869 z m 4.233333,0 c 0,0.7306 -0.59229,1.322868 -1.322917,1.322868 -0.730626,0 -1.322916,-0.592268 -1.322916,-1.322868 0,-0.730601 0.59229,-1.322869 1.322916,-1.322869 0.730627,0 1.322917,0.592268 1.322917,1.322869 z m 4.233333,0 c 0,0.7306 -0.59229,1.322868 -1.322916,1.322868 -0.730627,0 -1.322917,-0.592268 -1.322917,-1.322868 0,-0.730601 0.59229,-1.322869 1.322917,-1.322869 0.730626,0 1.322916,0.592268 1.322916,1.322869 z m 4.233334,0 c 0,0.7306 -0.59229,1.322868 -1.322917,1.322868 -0.730627,0 -1.322917,-0.592268 -1.322917,-1.322868 0,-0.730601 0.59229,-1.322869 1.322917,-1.322869 0.730627,0 1.322917,0.592268 1.322917,1.322869 z m 4.233333,0 c 0,0.7306 -0.59229,1.322868 -1.322917,1.322868 -0.730627,0 -1.322916,-0.592268 -1.322916,-1.322868 0,-0.730601 0.592289,-1.322869 1.322916,-1.322869 0.730627,0 1.322917,0.592268 1.322917,1.322869 z m 4.233333,0 c 0,0.7306 -0.59229,1.322868 -1.322917,1.322868 -0.730626,0 -1.322916,-0.592268 -1.322916,-1.322868 0,-0.730601 0.59229,-1.322869 1.322916,-1.322869 0.730627,0 1.322917,0.592268 1.322917,1.322869 z M 2.6458333,30.955529 c 0,0.7306 -0.59229,1.322868 -1.3229167,1.322868 C 0.59228995,32.278397 0,31.686129 0,30.955529 c 0,-0.7306 0.59228995,-1.322869 1.3229166,-1.322869 0.7306267,0 1.3229167,0.592269 1.3229167,1.322869 z m 4.2333332,0 c 0,0.7306 -0.5922899,1.322868 -1.3229166,1.322868 -0.7306267,0 -1.3229166,-0.592268 -1.3229166,-1.322868 0,-0.7306 0.5922899,-1.322869 1.3229166,-1.322869 0.7306267,0 1.3229166,0.592269 1.3229166,1.322869 z m 4.2333335,0 c 0,0.7306 -0.59229,1.322868 -1.3229169,1.322868 -0.7306266,0 -1.3229166,-0.592268 -1.3229166,-1.322868 0,-0.7306 0.59229,-1.322869 1.3229166,-1.322869 0.7306269,0 1.3229169,0.592269 1.3229169,1.322869 z m 4.233333,0 c 0,0.7306 -0.59229,1.322868 -1.322917,1.322868 -0.730626,0 -1.322916,-0.592268 -1.322916,-1.322868 0,-0.7306 0.59229,-1.322869 1.322916,-1.322869 0.730627,0 1.322917,0.592269 1.322917,1.322869 z m 4.233333,0 c 0,0.7306 -0.59229,1.322868 -1.322916,1.322868 -0.730627,0 -1.322917,-0.592268 -1.322917,-1.322868 0,-0.7306 0.59229,-1.322869 1.322917,-1.322869 0.730626,0 1.322916,0.592269 1.322916,1.322869 z m 4.233334,0 c 0,0.7306 -0.59229,1.322868 -1.322917,1.322868 -0.730627,0 -1.322917,-0.592268 -1.322917,-1.322868 0,-0.7306 0.59229,-1.322869 1.322917,-1.322869 0.730627,0 1.322917,0.592269 1.322917,1.322869 z m 4.233333,0 c 0,0.7306 -0.59229,1.322868 -1.322917,1.322868 -0.730627,0 -1.322916,-0.592268 -1.322916,-1.322868 0,-0.7306 0.592289,-1.322869 1.322916,-1.322869 0.730627,0 1.322917,0.592269 1.322917,1.322869 z m 4.233333,0 c 0,0.7306 -0.59229,1.322868 -1.322917,1.322868 -0.730626,0 -1.322916,-0.592268 -1.322916,-1.322868 0,-0.7306 0.59229,-1.322869 1.322916,-1.322869 0.730627,0 1.322917,0.592269 1.322917,1.322869 z"
       transform="translate(0.79375,0.79375)" />
  </g>
</svg>
